<svg xmlns="http://www.w3.org/2000/svg" xmlns:xlink="http://www.w3.org/1999/xlink" width="40" zoomAndPan="magnify" viewBox="0 0 30 30.000001" height="40" preserveAspectRatio="xMidYMid meet" version="1.0"><defs><g/><clipPath id="ce125220be"><path d="M 0.484375 0 L 29.515625 0 L 29.515625 29.03125 L 0.484375 29.03125 Z M 0.484375 0 " clip-rule="nonzero"/></clipPath><clipPath id="0a14789f45"><path d="M 15 0 C 6.984375 0 0.484375 6.5 0.484375 14.515625 C 0.484375 22.53125 6.984375 29.03125 15 29.03125 C 23.015625 29.03125 29.515625 22.53125 29.515625 14.515625 C 29.515625 6.5 23.015625 0 15 0 Z M 15 0 " clip-rule="nonzero"/></clipPath><clipPath id="d8e4be46f3"><path d="M 0.484375 0 L 29.515625 0 L 29.515625 29.03125 L 0.484375 29.03125 Z M 0.484375 0 " clip-rule="nonzero"/></clipPath><clipPath id="16019a7463"><path d="M 15 0 C 6.984375 0 0.484375 6.5 0.484375 14.515625 C 0.484375 22.53125 6.984375 29.03125 15 29.03125 C 23.015625 29.03125 29.515625 22.53125 29.515625 14.515625 C 29.515625 6.5 23.015625 0 15 0 Z M 15 0 " clip-rule="nonzero"/></clipPath><clipPath id="acf4de6a6b"><rect x="0" width="30" y="0" height="30"/></clipPath><clipPath id="d2b91a7de4"><path d="M 0.109375 1 L 10 1 L 10 10 L 0.109375 10 Z M 0.109375 1 " clip-rule="nonzero"/></clipPath><clipPath id="633a1d5347"><rect x="0" width="26" y="0" height="14"/></clipPath><clipPath id="a5c5474301"><path d="M 0.722656 1 L 2 1 L 2 2.882812 L 0.722656 2.882812 Z M 0.722656 1 " clip-rule="nonzero"/></clipPath><clipPath id="e12bd3aea8"><path d="M 2 1 L 3 1 L 3 2.882812 L 2 2.882812 Z M 2 1 " clip-rule="nonzero"/></clipPath><clipPath id="9a3ea2707b"><path d="M 3 1 L 5 1 L 5 2.882812 L 3 2.882812 Z M 3 1 " clip-rule="nonzero"/></clipPath><clipPath id="d2e7349c03"><path d="M 4 1 L 6 1 L 6 2.882812 L 4 2.882812 Z M 4 1 " clip-rule="nonzero"/></clipPath><clipPath id="f91267398a"><path d="M 6 1 L 8 1 L 8 2.882812 L 6 2.882812 Z M 6 1 " clip-rule="nonzero"/></clipPath><clipPath id="80759f865c"><path d="M 7 1 L 10 1 L 10 2.882812 L 7 2.882812 Z M 7 1 " clip-rule="nonzero"/></clipPath><clipPath id="badbe90258"><path d="M 9 1 L 11 1 L 11 2.882812 L 9 2.882812 Z M 9 1 " clip-rule="nonzero"/></clipPath><clipPath id="53e5128b79"><path d="M 10 1 L 12 1 L 12 2.882812 L 10 2.882812 Z M 10 1 " clip-rule="nonzero"/></clipPath><clipPath id="2fb42dcd1e"><path d="M 12 1 L 14 1 L 14 2.882812 L 12 2.882812 Z M 12 1 " clip-rule="nonzero"/></clipPath><clipPath id="c66a9d1386"><path d="M 13 1 L 14.890625 1 L 14.890625 2.882812 L 13 2.882812 Z M 13 1 " clip-rule="nonzero"/></clipPath><clipPath id="a3ab0555bc"><rect x="0" width="15" y="0" height="3"/></clipPath></defs><g clip-path="url(#ce125220be)"><g clip-path="url(#0a14789f45)"><g transform="matrix(1, 0, 0, 1, 0, 0.000000000000005692)"><g clip-path="url(#acf4de6a6b)"><g clip-path="url(#d8e4be46f3)"><g clip-path="url(#16019a7463)"><path fill="#0d3152" d="M 0.484375 0 L 29.515625 0 L 29.515625 29.03125 L 0.484375 29.03125 Z M 0.484375 0 " fill-opacity="1" fill-rule="nonzero"/></g></g></g></g></g></g><g transform="matrix(1, 0, 0, 1, 2, 5)"><g clip-path="url(#633a1d5347)"><g clip-path="url(#d2b91a7de4)"><g fill="#ffffff" fill-opacity="1"><g transform="translate(0.311926, 9.512774)"><g><path d="M 7.234375 0 L 6.859375 -4.765625 L 6.8125 -4.765625 L 5.15625 -0.046875 L 4.0625 -0.046875 L 2.421875 -4.765625 L 2.375 -4.765625 L 1.984375 0 L 0.15625 0 L 0.875 -8.046875 L 2.828125 -8.046875 L 4.609375 -3.40625 L 6.390625 -8.046875 L 8.34375 -8.046875 L 9.0625 0 Z M 7.234375 0 "/></g></g></g></g><g fill="#ffffff" fill-opacity="1"><g transform="translate(9.531544, 9.512774)"><g><path d="M 7.859375 -4.5 L 7.859375 -2.765625 C 7.648438 -1.804688 7.191406 -1.082031 6.484375 -0.59375 C 5.785156 -0.101562 5.003906 0.140625 4.140625 0.140625 C 3.054688 0.140625 2.128906 -0.265625 1.359375 -1.078125 C 0.597656 -1.890625 0.21875 -2.867188 0.21875 -4.015625 C 0.21875 -5.179688 0.59375 -6.164062 1.34375 -6.96875 C 2.09375 -7.78125 3.023438 -8.1875 4.140625 -8.1875 C 5.453125 -8.1875 6.488281 -7.726562 7.25 -6.8125 L 6.046875 -5.5 C 5.617188 -6.1875 5.019531 -6.53125 4.25 -6.53125 C 3.6875 -6.53125 3.203125 -6.285156 2.796875 -5.796875 C 2.398438 -5.304688 2.203125 -4.710938 2.203125 -4.015625 C 2.203125 -3.335938 2.398438 -2.753906 2.796875 -2.265625 C 3.203125 -1.785156 3.6875 -1.546875 4.25 -1.546875 C 4.71875 -1.546875 5.125 -1.6875 5.46875 -1.96875 C 5.820312 -2.25 6 -2.625 6 -3.09375 L 4.140625 -3.09375 L 4.140625 -4.5 Z M 7.859375 -4.5 "/></g></g></g><g fill="#ffffff" fill-opacity="1"><g transform="translate(16.78246, 9.512774)"><g><path d="M 3.09375 0 L -0.265625 -8.046875 L 1.796875 -8.046875 L 3.828125 -2.765625 L 5.84375 -8.046875 L 7.921875 -8.046875 L 4.546875 0 Z M 3.09375 0 "/></g></g></g></g></g><g transform="matrix(1, 0, 0, 1, 13, 15)"><g clip-path="url(#a3ab0555bc)"><g clip-path="url(#a5c5474301)"><g fill="#ffffff" fill-opacity="1"><g transform="translate(0.733985, 2.298986)"><g><path d="M 0.4375 -1.140625 L 0 -1.140625 L 0 -1.25 L 1.015625 -1.25 L 1.015625 -1.140625 L 0.578125 -1.140625 L 0.578125 0 L 0.4375 0 Z M 0.4375 -1.140625 "/></g></g></g></g><g clip-path="url(#e12bd3aea8)"><g fill="#ffffff" fill-opacity="1"><g transform="translate(1.860912, 2.298986)"><g><path d="M 1.078125 -0.109375 L 1.078125 0 L 0.203125 0 L 0.203125 -1.25 L 1.0625 -1.25 L 1.0625 -1.140625 L 0.328125 -1.140625 L 0.328125 -0.6875 L 0.984375 -0.6875 L 0.984375 -0.578125 L 0.328125 -0.578125 L 0.328125 -0.109375 Z M 1.078125 -0.109375 "/></g></g></g></g><g clip-path="url(#9a3ea2707b)"><g fill="#ffffff" fill-opacity="1"><g transform="translate(3.149834, 2.298986)"><g><path d="M 0.75 0.015625 C 0.625 0.015625 0.507812 -0.0078125 0.40625 -0.0625 C 0.3125 -0.125 0.234375 -0.203125 0.171875 -0.296875 C 0.117188 -0.390625 0.09375 -0.5 0.09375 -0.625 C 0.09375 -0.738281 0.117188 -0.84375 0.171875 -0.9375 C 0.234375 -1.039062 0.3125 -1.117188 0.40625 -1.171875 C 0.507812 -1.222656 0.625 -1.25 0.75 -1.25 C 0.84375 -1.25 0.925781 -1.234375 1 -1.203125 C 1.082031 -1.179688 1.148438 -1.140625 1.203125 -1.078125 L 1.125 -0.984375 C 1.019531 -1.085938 0.894531 -1.140625 0.75 -1.140625 C 0.65625 -1.140625 0.566406 -1.113281 0.484375 -1.0625 C 0.398438 -1.019531 0.332031 -0.957031 0.28125 -0.875 C 0.238281 -0.800781 0.21875 -0.71875 0.21875 -0.625 C 0.21875 -0.53125 0.238281 -0.441406 0.28125 -0.359375 C 0.332031 -0.285156 0.398438 -0.222656 0.484375 -0.171875 C 0.566406 -0.128906 0.65625 -0.109375 0.75 -0.109375 C 0.894531 -0.109375 1.019531 -0.15625 1.125 -0.25 L 1.203125 -0.171875 C 1.148438 -0.109375 1.082031 -0.0625 1 -0.03125 C 0.925781 0 0.84375 0.015625 0.75 0.015625 Z M 0.75 0.015625 "/></g></g></g></g><g clip-path="url(#d2e7349c03)"><g fill="#ffffff" fill-opacity="1"><g transform="translate(4.53489, 2.298986)"><g><path d="M 1.25 -1.25 L 1.25 0 L 1.109375 0 L 1.109375 -0.578125 L 0.328125 -0.578125 L 0.328125 0 L 0.203125 0 L 0.203125 -1.25 L 0.328125 -1.25 L 0.328125 -0.6875 L 1.109375 -0.6875 L 1.109375 -1.25 Z M 1.25 -1.25 "/></g></g></g></g><g clip-path="url(#f91267398a)"><g fill="#ffffff" fill-opacity="1"><g transform="translate(6.087286, 2.298986)"><g><path d="M 1.25 -1.25 L 1.25 0 L 1.140625 0 L 0.328125 -1.015625 L 0.328125 0 L 0.203125 0 L 0.203125 -1.25 L 0.3125 -1.25 L 1.109375 -0.234375 L 1.109375 -1.25 Z M 1.25 -1.25 "/></g></g></g></g><g clip-path="url(#80759f865c)"><g fill="#ffffff" fill-opacity="1"><g transform="translate(7.639682, 2.298986)"><g><path d="M 0.75 0.015625 C 0.625 0.015625 0.507812 -0.0078125 0.40625 -0.0625 C 0.3125 -0.125 0.234375 -0.203125 0.171875 -0.296875 C 0.117188 -0.390625 0.09375 -0.5 0.09375 -0.625 C 0.09375 -0.738281 0.117188 -0.84375 0.171875 -0.9375 C 0.234375 -1.039062 0.3125 -1.117188 0.40625 -1.171875 C 0.507812 -1.222656 0.625 -1.25 0.75 -1.25 C 0.875 -1.25 0.984375 -1.222656 1.078125 -1.171875 C 1.179688 -1.117188 1.257812 -1.039062 1.3125 -0.9375 C 1.375 -0.84375 1.40625 -0.738281 1.40625 -0.625 C 1.40625 -0.5 1.375 -0.390625 1.3125 -0.296875 C 1.257812 -0.203125 1.179688 -0.125 1.078125 -0.0625 C 0.984375 -0.0078125 0.875 0.015625 0.75 0.015625 Z M 0.75 -0.109375 C 0.84375 -0.109375 0.929688 -0.128906 1.015625 -0.171875 C 1.097656 -0.210938 1.160156 -0.273438 1.203125 -0.359375 C 1.242188 -0.441406 1.265625 -0.53125 1.265625 -0.625 C 1.265625 -0.71875 1.242188 -0.800781 1.203125 -0.875 C 1.160156 -0.957031 1.097656 -1.019531 1.015625 -1.0625 C 0.929688 -1.113281 0.84375 -1.140625 0.75 -1.140625 C 0.644531 -1.140625 0.550781 -1.113281 0.46875 -1.0625 C 0.394531 -1.019531 0.332031 -0.957031 0.28125 -0.875 C 0.238281 -0.800781 0.21875 -0.71875 0.21875 -0.625 C 0.21875 -0.53125 0.238281 -0.441406 0.28125 -0.359375 C 0.332031 -0.273438 0.394531 -0.210938 0.46875 -0.171875 C 0.550781 -0.128906 0.644531 -0.109375 0.75 -0.109375 Z M 0.75 -0.109375 "/></g></g></g></g><g clip-path="url(#badbe90258)"><g fill="#ffffff" fill-opacity="1"><g transform="translate(9.238364, 2.298986)"><g><path d="M 0.203125 -1.25 L 0.328125 -1.25 L 0.328125 -0.109375 L 1.03125 -0.109375 L 1.03125 0 L 0.203125 0 Z M 0.203125 -1.25 "/></g></g></g></g><g clip-path="url(#53e5128b79)"><g fill="#ffffff" fill-opacity="1"><g transform="translate(10.36706, 2.298986)"><g><path d="M 0.75 0.015625 C 0.625 0.015625 0.507812 -0.0078125 0.40625 -0.0625 C 0.3125 -0.125 0.234375 -0.203125 0.171875 -0.296875 C 0.117188 -0.390625 0.09375 -0.5 0.09375 -0.625 C 0.09375 -0.738281 0.117188 -0.84375 0.171875 -0.9375 C 0.234375 -1.039062 0.3125 -1.117188 0.40625 -1.171875 C 0.507812 -1.222656 0.625 -1.25 0.75 -1.25 C 0.875 -1.25 0.984375 -1.222656 1.078125 -1.171875 C 1.179688 -1.117188 1.257812 -1.039062 1.3125 -0.9375 C 1.375 -0.84375 1.40625 -0.738281 1.40625 -0.625 C 1.40625 -0.5 1.375 -0.390625 1.3125 -0.296875 C 1.257812 -0.203125 1.179688 -0.125 1.078125 -0.0625 C 0.984375 -0.0078125 0.875 0.015625 0.75 0.015625 Z M 0.75 -0.109375 C 0.84375 -0.109375 0.929688 -0.128906 1.015625 -0.171875 C 1.097656 -0.210938 1.160156 -0.273438 1.203125 -0.359375 C 1.242188 -0.441406 1.265625 -0.53125 1.265625 -0.625 C 1.265625 -0.71875 1.242188 -0.800781 1.203125 -0.875 C 1.160156 -0.957031 1.097656 -1.019531 1.015625 -1.0625 C 0.929688 -1.113281 0.84375 -1.140625 0.75 -1.140625 C 0.644531 -1.140625 0.550781 -1.113281 0.46875 -1.0625 C 0.394531 -1.019531 0.332031 -0.957031 0.28125 -0.875 C 0.238281 -0.800781 0.21875 -0.71875 0.21875 -0.625 C 0.21875 -0.53125 0.238281 -0.441406 0.28125 -0.359375 C 0.332031 -0.273438 0.394531 -0.210938 0.46875 -0.171875 C 0.550781 -0.128906 0.644531 -0.109375 0.75 -0.109375 Z M 0.75 -0.109375 "/></g></g></g></g><g clip-path="url(#2fb42dcd1e)"><g fill="#ffffff" fill-opacity="1"><g transform="translate(11.965741, 2.298986)"><g><path d="M 1.078125 -0.625 L 1.203125 -0.625 L 1.203125 -0.140625 C 1.148438 -0.0976562 1.082031 -0.0625 1 -0.03125 C 0.914062 0 0.832031 0.015625 0.75 0.015625 C 0.625 0.015625 0.507812 -0.0078125 0.40625 -0.0625 C 0.3125 -0.125 0.234375 -0.203125 0.171875 -0.296875 C 0.117188 -0.390625 0.09375 -0.5 0.09375 -0.625 C 0.09375 -0.738281 0.117188 -0.84375 0.171875 -0.9375 C 0.234375 -1.039062 0.3125 -1.117188 0.40625 -1.171875 C 0.507812 -1.222656 0.625 -1.25 0.75 -1.25 C 0.84375 -1.25 0.929688 -1.234375 1.015625 -1.203125 C 1.097656 -1.179688 1.164062 -1.140625 1.21875 -1.078125 L 1.140625 -1 C 1.035156 -1.09375 0.90625 -1.140625 0.75 -1.140625 C 0.65625 -1.140625 0.566406 -1.113281 0.484375 -1.0625 C 0.398438 -1.019531 0.332031 -0.957031 0.28125 -0.875 C 0.238281 -0.800781 0.21875 -0.71875 0.21875 -0.625 C 0.21875 -0.53125 0.238281 -0.441406 0.28125 -0.359375 C 0.332031 -0.285156 0.398438 -0.222656 0.484375 -0.171875 C 0.566406 -0.128906 0.65625 -0.109375 0.75 -0.109375 C 0.882812 -0.109375 0.992188 -0.140625 1.078125 -0.203125 Z M 1.078125 -0.625 "/></g></g></g></g><g clip-path="url(#c66a9d1386)"><g fill="#ffffff" fill-opacity="1"><g transform="translate(13.446929, 2.298986)"><g><path d="M 0.625 -0.4375 L 0.625 0 L 0.5 0 L 0.5 -0.4375 L 0 -1.25 L 0.140625 -1.25 L 0.5625 -0.546875 L 1 -1.25 L 1.125 -1.25 Z M 0.625 -0.4375 "/></g></g></g></g></g></g></svg>